<svg width="294" height="70" viewBox="0 0 294 70" fill="none" xmlns="http://www.w3.org/2000/svg">
<path d="M4.78049 0H0V69.9187H4.78049V0Z" fill="#1E1E20"/>
<path d="M9.56017 0H7.16992V69.9187H9.56017V0Z" fill="#1E1E20"/>
<path d="M16.7311 0H14.3408V69.9187H16.7311V0Z" fill="#1E1E20"/>
<path d="M28.6822 0H26.292V69.9187H28.6822V0Z" fill="#1E1E20"/>
<path d="M40.635 0H35.8545V69.9187H40.635V0Z" fill="#1E1E20"/>
<path d="M50.1949 0H47.8047V69.9187H50.1949V0Z" fill="#1E1E20"/>
<path d="M54.9752 0H52.585V69.9187H54.9752V0Z" fill="#1E1E20"/>
<path d="M62.1467 0H57.3662V69.9187H62.1467V0Z" fill="#1E1E20"/>
<path d="M69.316 0H66.9258V69.9187H69.316V0Z" fill="#1E1E20"/>
<path d="M81.2692 0H78.8789V69.9187H81.2692V0Z" fill="#1E1E20"/>
<path d="M93.2202 0H83.6592V69.9187H93.2202V0Z" fill="#1E1E20"/>
<path d="M100.39 0H98V69.9187H100.39V0Z" fill="#1E1E20"/>
<path d="M107.561 0H105.171V69.9187H107.561V0Z" fill="#1E1E20"/>
<path d="M121.902 0H112.341V69.9187H121.902V0Z" fill="#1E1E20"/>
<path d="M126.682 0H124.292V69.9187H126.682V0Z" fill="#1E1E20"/>
<path d="M133.854 0H131.464V69.9187H133.854V0Z" fill="#1E1E20"/>
<path d="M148.196 0H143.415V69.9187H148.196V0Z" fill="#1E1E20"/>
<path d="M152.976 0H150.586V69.9187H152.976V0Z" fill="#1E1E20"/>
<path d="M167.317 0H157.756V69.9187H167.317V0Z" fill="#1E1E20"/>
<path d="M172.098 0H169.708V69.9187H172.098V0Z" fill="#1E1E20"/>
<path d="M179.268 0H176.878V69.9187H179.268V0Z" fill="#1E1E20"/>
<path d="M186.439 0H184.049V69.9187H186.439V0Z" fill="#1E1E20"/>
<path d="M193.61 0H191.22V69.9187H193.61V0Z" fill="#1E1E20"/>
<path d="M200.781 0H196.001V69.9187H200.781V0Z" fill="#1E1E20"/>
<path d="M215.121 0H210.341V69.9187H215.121V0Z" fill="#1E1E20"/>
<path d="M222.294 0H219.903V69.9187H222.294V0Z" fill="#1E1E20"/>
<path d="M227.075 0H224.685V69.9187H227.075V0Z" fill="#1E1E20"/>
<path d="M243.806 0H236.635V69.9187H243.806V0Z" fill="#1E1E20"/>
<path d="M253.366 0H248.586V69.9187H253.366V0Z" fill="#1E1E20"/>
<path d="M258.146 0H255.756V69.9187H258.146V0Z" fill="#1E1E20"/>
<path d="M267.707 0H262.927V69.9187H267.707V0Z" fill="#1E1E20"/>
<path d="M282.049 0H274.878V69.9187H282.049V0Z" fill="#1E1E20"/>
<path d="M286.831 0H284.44V69.9187H286.831V0Z" fill="#1E1E20"/>
<path d="M294 0H289.22V69.9187H294V0Z" fill="#1E1E20"/>
</svg>
