<svg width="16" height="16" viewBox="0 0 16 16" fill="none" xmlns="http://www.w3.org/2000/svg">
<path d="M10.6739 6.16731C10.7165 6.20982 10.7502 6.2603 10.7733 6.31587C10.7963 6.37143 10.8081 6.43099 10.8081 6.49114C10.8081 6.55129 10.7963 6.61085 10.7733 6.66642C10.7502 6.72198 10.7165 6.77246 10.6739 6.81497L7.46995 10.0189C7.42744 10.0615 7.37696 10.0952 7.32139 10.1183C7.26583 10.1413 7.20627 10.1532 7.14612 10.1532C7.08597 10.1532 7.02641 10.1413 6.97084 10.1183C6.91528 10.0952 6.8648 10.0615 6.82229 10.0189L5.44917 8.6458C5.36328 8.55992 5.31503 8.44343 5.31503 8.32197C5.31503 8.20051 5.36328 8.08403 5.44917 7.99814C5.53505 7.91226 5.65153 7.86401 5.77299 7.86401C5.89445 7.86401 6.01094 7.91226 6.09682 7.99814L7.14612 9.04801L10.0262 6.16731C10.0688 6.12476 10.1192 6.091 10.1748 6.06796C10.2304 6.04493 10.2899 6.03307 10.3501 6.03307C10.4102 6.03307 10.4698 6.04493 10.5253 6.06796C10.5809 6.091 10.6314 6.12476 10.6739 6.16731ZM14.0117 7.86426C14.0117 9.0411 13.6628 10.1915 13.0089 11.17C12.3551 12.1485 11.4258 12.9112 10.3386 13.3615C9.25132 13.8119 8.05493 13.9297 6.90071 13.7001C5.74648 13.4705 4.68626 12.9038 3.8541 12.0717C3.02195 11.2395 2.45525 10.1793 2.22566 9.02509C1.99607 7.87087 2.11391 6.67448 2.56426 5.58722C3.01462 4.49996 3.77727 3.57067 4.75578 2.91685C5.73428 2.26304 6.88469 1.91406 8.06153 1.91406C9.63911 1.91573 11.1516 2.54316 12.2671 3.65868C13.3826 4.77419 14.0101 6.28668 14.0117 7.86426ZM13.0963 7.86426C13.0963 6.86848 12.801 5.89505 12.2478 5.06709C11.6946 4.23912 10.9082 3.5938 9.98826 3.21273C9.06828 2.83166 8.05595 2.73195 7.0793 2.92622C6.10264 3.12049 5.20553 3.60001 4.5014 4.30413C3.79727 5.00826 3.31776 5.90537 3.12349 6.88203C2.92922 7.85868 3.02893 8.87101 3.41 9.79099C3.79107 10.711 4.43639 11.4973 5.26436 12.0505C6.09232 12.6038 7.06575 12.8991 8.06153 12.8991C9.39638 12.8975 10.6761 12.3666 11.62 11.4227C12.5639 10.4788 13.0948 9.19911 13.0963 7.86426Z" fill="#C3C3C4"/>
</svg>
