<svg width="222" height="314" viewBox="0 0 222 314" fill="none" xmlns="http://www.w3.org/2000/svg">
<path d="M6.76199 0.614258L214.241 90.7133L201.505 312.624H6.76169L6.76172 90.7133L6.76199 0.614258Z" fill="#F7F7F7"/>
<rect x="62.5078" y="272.916" width="89.1763" height="35.6705" fill="#5562A2"/>
<path d="M100.097 289.885C100.08 289.729 100.01 289.609 99.8871 289.522C99.7652 289.436 99.6065 289.393 99.4112 289.393C99.2739 289.393 99.1561 289.413 99.0579 289.455C98.9596 289.496 98.8845 289.552 98.8324 289.624C98.7803 289.695 98.7537 289.776 98.7525 289.867C98.7525 289.943 98.7696 290.008 98.804 290.064C98.8395 290.119 98.8874 290.167 98.9478 290.206C99.0082 290.244 99.075 290.276 99.1484 290.302C99.2218 290.328 99.2958 290.35 99.3704 290.367L99.7113 290.453C99.8486 290.485 99.9806 290.528 100.107 290.582C100.235 290.637 100.349 290.705 100.45 290.788C100.552 290.871 100.632 290.971 100.691 291.088C100.751 291.206 100.78 291.343 100.78 291.5C100.78 291.713 100.726 291.901 100.617 292.063C100.508 292.224 100.35 292.35 100.145 292.441C99.9397 292.531 99.6918 292.576 99.4006 292.576C99.1177 292.576 98.872 292.532 98.6637 292.445C98.4566 292.357 98.2944 292.229 98.1772 292.061C98.0612 291.893 97.9985 291.688 97.989 291.447H98.6371C98.6465 291.574 98.6856 291.679 98.7543 291.763C98.8229 291.847 98.9123 291.91 99.0224 291.951C99.1336 291.993 99.2579 292.013 99.3952 292.013C99.5385 292.013 99.6639 291.992 99.7717 291.95C99.8806 291.906 99.9658 291.845 100.027 291.768C100.089 291.69 100.12 291.599 100.121 291.495C100.12 291.4 100.092 291.322 100.038 291.261C99.9835 291.198 99.9072 291.146 99.8089 291.104C99.7119 291.062 99.5982 291.024 99.468 290.991L99.0543 290.884C98.7549 290.807 98.5181 290.691 98.3441 290.534C98.1713 290.377 98.0849 290.168 98.0849 289.908C98.0849 289.693 98.1429 289.506 98.2589 289.345C98.3761 289.184 98.5353 289.059 98.7365 288.97C98.9377 288.88 99.1656 288.835 99.4201 288.835C99.6781 288.835 99.9042 288.88 100.098 288.97C100.294 289.059 100.447 289.183 100.558 289.341C100.67 289.499 100.727 289.68 100.73 289.885H100.097ZM101.208 289.437V288.885H104.109V289.437H102.985V292.521H102.332V289.437H101.208ZM104.696 292.521H103.993L105.273 288.885H106.086L107.368 292.521H106.665L105.694 289.631H105.665L104.696 292.521ZM104.719 291.095H106.636V291.625H104.719V291.095ZM110.112 290.046C110.083 289.95 110.042 289.864 109.99 289.789C109.939 289.712 109.877 289.646 109.805 289.592C109.734 289.537 109.652 289.496 109.56 289.469C109.468 289.441 109.367 289.426 109.258 289.426C109.063 289.426 108.889 289.476 108.736 289.574C108.583 289.672 108.463 289.816 108.376 290.007C108.289 290.196 108.246 290.427 108.246 290.7C108.246 290.974 108.289 291.207 108.376 291.397C108.462 291.588 108.582 291.733 108.736 291.832C108.89 291.931 109.069 291.98 109.272 291.98C109.457 291.98 109.617 291.944 109.752 291.873C109.888 291.802 109.993 291.702 110.066 291.571C110.139 291.44 110.176 291.286 110.176 291.11L110.325 291.133H109.338V290.618H110.813V291.055C110.813 291.366 110.747 291.635 110.615 291.863C110.482 292.09 110.3 292.265 110.068 292.388C109.836 292.51 109.569 292.571 109.269 292.571C108.934 292.571 108.64 292.496 108.386 292.345C108.134 292.194 107.937 291.979 107.795 291.701C107.654 291.422 107.584 291.09 107.584 290.707C107.584 290.413 107.625 290.151 107.708 289.92C107.792 289.689 107.909 289.493 108.06 289.332C108.21 289.17 108.386 289.047 108.589 288.963C108.791 288.878 109.011 288.835 109.249 288.835C109.45 288.835 109.638 288.865 109.812 288.924C109.986 288.982 110.141 289.065 110.275 289.173C110.412 289.28 110.523 289.408 110.611 289.556C110.699 289.704 110.756 289.867 110.783 290.046H110.112ZM111.45 292.521V288.885H113.816V289.437H112.109V290.424H113.693V290.976H112.109V291.969H113.83V292.521H111.45Z" fill="white"/>
<rect x="47.6445" y="171.849" width="118.902" height="44.5881" fill="#FFEFC3"/>
<rect x="47.6445" y="145.096" width="118.902" height="23.7803" fill="#F26CF9"/>
<rect x="47.6445" y="107.94" width="118.902" height="34.1842" fill="#FCD3FE"/>
<path d="M47.0508 70.2108L164.9 78.8317L165.952 104.395H47.0508V70.2108Z" fill="#FDEDFE"/>
<path d="M47.6443 33.626L141.701 69.7669L47.6328 65.8141L47.6443 33.626Z" fill="#D1D2E0"/>
<rect x="14.9473" y="219.41" width="29.7254" height="50.5332" fill="#707DBF"/>
<rect x="14.9473" y="165.904" width="29.7254" height="50.5332" fill="#ABB4DD"/>
<path d="M169.52 165.904H200.731L197.759 216.437H169.52V165.904Z" fill="#ABB4DD"/>
<path d="M14.9473 79.7004L43.5295 70.2594L44.6727 162.932H14.9473L14.9473 79.7004Z" fill="#D3DAF9"/>
<path d="M169.52 79.7004L204.447 94.5631L200.731 162.932H169.52V79.7004Z" fill="#D3DAF9"/>
<path d="M169.52 219.41H197.759L194.786 269.943H169.52V219.41Z" fill="#707DBF"/>
<rect x="59.5352" y="238.731" width="40.1293" height="31.2117" fill="#FFCA39"/>
<rect x="47.6445" y="238.731" width="11.8902" height="69.8547" fill="#FFCA39"/>
<rect x="47.6445" y="219.41" width="40.1293" height="28.2391" fill="#FFCA39"/>
<rect width="40.1293" height="31.2117" transform="matrix(-1 0 0 1 154.656 238.731)" fill="#FFCA39"/>
<rect width="11.8902" height="69.8547" transform="matrix(-1 0 0 1 166.547 238.731)" fill="#FFCA39"/>
<rect width="40.1293" height="28.2391" transform="matrix(-1 0 0 1 166.547 219.41)" fill="#FFCA39"/>
<rect x="90.7461" y="219.41" width="32.698" height="16.349" fill="#5562A2"/>
<rect x="102.637" y="234.273" width="8.91763" height="38.643" fill="#5562A2"/>
<path d="M103.003 154.885L103.949 157.747H103.987L104.931 154.885H105.656L104.374 158.521H103.56L102.28 154.885H103.003ZM106.793 154.885V158.521H106.135V154.885H106.793ZM107.507 158.521V154.885H108.87C109.15 154.885 109.384 154.937 109.573 155.041C109.764 155.145 109.908 155.289 110.005 155.471C110.103 155.652 110.152 155.858 110.152 156.089C110.152 156.322 110.103 156.529 110.005 156.71C109.907 156.891 109.762 157.034 109.57 157.138C109.378 157.241 109.142 157.293 108.861 157.293H107.958V156.751H108.773C108.936 156.751 109.07 156.723 109.174 156.666C109.278 156.609 109.355 156.531 109.405 156.431C109.456 156.332 109.481 156.218 109.481 156.089C109.481 155.96 109.456 155.846 109.405 155.748C109.355 155.65 109.277 155.573 109.172 155.519C109.068 155.463 108.934 155.435 108.769 155.435H108.165V158.521H107.507Z" fill="white"/>
<path d="M19.5221 118.521V114.885H20.8537C21.1118 114.885 21.3254 114.927 21.4947 115.013C21.664 115.097 21.7906 115.211 21.8747 115.355C21.9587 115.499 22.0008 115.66 22.0008 115.84C22.0008 115.992 21.9729 116.119 21.9173 116.224C21.8617 116.327 21.7871 116.409 21.6936 116.472C21.6013 116.534 21.4995 116.579 21.3882 116.607V116.643C21.5089 116.649 21.6267 116.688 21.7415 116.76C21.8575 116.831 21.9534 116.932 22.0292 117.063C22.1049 117.195 22.1428 117.355 22.1428 117.543C22.1428 117.729 22.099 117.896 22.0114 118.044C21.925 118.19 21.7912 118.307 21.6101 118.393C21.429 118.479 21.1976 118.521 20.9159 118.521H19.5221ZM20.0707 118.051H20.8626C21.1254 118.051 21.3136 118 21.4272 117.898C21.5409 117.796 21.5977 117.669 21.5977 117.516C21.5977 117.401 21.5687 117.296 21.5107 117.2C21.4527 117.104 21.3698 117.028 21.2621 116.971C21.1556 116.914 21.0289 116.886 20.8821 116.886H20.0707V118.051ZM20.0707 116.458H20.8058C20.9289 116.458 21.0396 116.434 21.1378 116.387C21.2373 116.34 21.316 116.273 21.374 116.188C21.4332 116.102 21.4628 116 21.4628 115.883C21.4628 115.732 21.4101 115.606 21.3047 115.505C21.1994 115.403 21.0378 115.352 20.82 115.352H20.0707V116.458ZM22.7935 118.521V114.885H24.0897C24.3714 114.885 24.6052 114.933 24.7911 115.03C24.9781 115.128 25.1178 115.262 25.2101 115.434C25.3024 115.604 25.3486 115.801 25.3486 116.025C25.3486 116.247 25.3018 116.443 25.2083 116.613C25.116 116.781 24.9763 116.911 24.7893 117.005C24.6034 117.098 24.3697 117.145 24.0879 117.145H23.106V116.673H24.0382C24.2158 116.673 24.3602 116.647 24.4715 116.597C24.5839 116.546 24.6662 116.472 24.7183 116.375C24.7703 116.278 24.7964 116.161 24.7964 116.025C24.7964 115.887 24.7698 115.769 24.7165 115.668C24.6644 115.567 24.5821 115.49 24.4697 115.437C24.3584 115.383 24.2122 115.355 24.0311 115.355H23.3422V118.521H22.7935ZM24.5886 116.881L25.4871 118.521H24.8621L23.9814 116.881H24.5886ZM29.1749 116.703C29.1749 117.091 29.1039 117.425 28.9619 117.704C28.8198 117.983 28.6251 118.197 28.3777 118.347C28.1315 118.496 27.8515 118.571 27.5379 118.571C27.223 118.571 26.9419 118.496 26.6945 118.347C26.4483 118.197 26.2541 117.982 26.1121 117.703C25.97 117.423 25.899 117.09 25.899 116.703C25.899 116.315 25.97 115.982 26.1121 115.703C26.2541 115.424 26.4483 115.21 26.6945 115.061C26.9419 114.91 27.223 114.835 27.5379 114.835C27.8515 114.835 28.1315 114.91 28.3777 115.061C28.6251 115.21 28.8198 115.424 28.9619 115.703C29.1039 115.982 29.1749 116.315 29.1749 116.703ZM28.6316 116.703C28.6316 116.407 28.5837 116.158 28.4878 115.956C28.3931 115.752 28.2629 115.598 28.0972 115.494C27.9326 115.389 27.7462 115.336 27.5379 115.336C27.3283 115.336 27.1413 115.389 26.9768 115.494C26.8122 115.598 26.682 115.752 26.5862 115.956C26.4915 116.158 26.4441 116.407 26.4441 116.703C26.4441 116.999 26.4915 117.249 26.5862 117.452C26.682 117.655 26.8122 117.809 26.9768 117.914C27.1413 118.018 27.3283 118.07 27.5379 118.07C27.7462 118.07 27.9326 118.018 28.0972 117.914C28.2629 117.809 28.3931 117.655 28.4878 117.452C28.5837 117.249 28.6316 116.999 28.6316 116.703ZM32.794 114.885V118.521H32.2897L30.4414 115.854H30.4076V118.521H29.859V114.885H30.3668L32.2169 117.555H32.2507V114.885H32.794ZM33.5002 118.521V118.155L35.4125 115.357H33.4842V114.885H36.0837V115.251L34.1714 118.049H36.0997V118.521H33.5002ZM36.7877 118.521V114.885H39.0675V115.357H37.3363V116.465H38.9486V116.936H37.3363V118.049H39.0888V118.521H36.7877Z" fill="#1E1E20"/>
<path d="M23.2607 190.84C23.2418 190.672 23.1637 190.542 23.0264 190.45C22.8891 190.356 22.7162 190.309 22.5079 190.309C22.3588 190.309 22.2297 190.333 22.1208 190.38C22.0119 190.426 21.9273 190.49 21.8669 190.572C21.8077 190.653 21.7781 190.744 21.7781 190.847C21.7781 190.934 21.7983 191.008 21.8385 191.071C21.8799 191.134 21.9338 191.186 22.0001 191.229C22.0676 191.27 22.1398 191.305 22.2167 191.334C22.2936 191.361 22.3676 191.383 22.4387 191.401L22.7938 191.494C22.9098 191.522 23.0287 191.56 23.1507 191.609C23.2726 191.657 23.3856 191.721 23.4898 191.801C23.594 191.88 23.678 191.978 23.7419 192.095C23.807 192.213 23.8396 192.353 23.8396 192.516C23.8396 192.722 23.7863 192.905 23.6798 193.065C23.5744 193.225 23.4211 193.351 23.2199 193.443C23.0199 193.535 22.7778 193.582 22.4937 193.582C22.2214 193.582 21.9859 193.538 21.787 193.452C21.5882 193.366 21.4325 193.243 21.32 193.084C21.2076 192.925 21.1454 192.735 21.1336 192.516H21.684C21.6947 192.648 21.7373 192.757 21.8119 192.845C21.8876 192.931 21.9841 192.996 22.1013 193.038C22.2197 193.08 22.3493 193.1 22.4901 193.1C22.6452 193.1 22.7831 193.076 22.9039 193.028C23.0258 192.978 23.1217 192.909 23.1915 192.822C23.2613 192.733 23.2963 192.629 23.2963 192.511C23.2963 192.403 23.2655 192.315 23.2039 192.246C23.1436 192.178 23.0613 192.121 22.9571 192.076C22.8541 192.031 22.7375 191.991 22.6073 191.957L22.1776 191.84C21.8865 191.76 21.6556 191.644 21.4852 191.49C21.3159 191.336 21.2313 191.133 21.2313 190.879C21.2313 190.67 21.2881 190.487 21.4017 190.331C21.5154 190.174 21.6692 190.053 21.8634 189.967C22.0575 189.879 22.2765 189.835 22.5203 189.835C22.7665 189.835 22.9838 189.878 23.172 189.965C23.3614 190.051 23.5105 190.17 23.6194 190.322C23.7283 190.472 23.7851 190.645 23.7899 190.84H23.2607ZM25.0439 189.885V193.521H24.4952V189.885H25.0439ZM25.8429 193.521V189.885H26.3915V193.049H28.0392V193.521H25.8429ZM28.6265 189.885L29.6386 192.847H29.6794L30.6915 189.885H31.2845L29.9759 193.521H29.3421L28.0335 189.885H28.6265ZM31.8097 193.521V189.885H34.0895V190.357H32.3583V191.465H33.9705V191.936H32.3583V193.049H34.1108V193.521H31.8097ZM34.8224 193.521V189.885H36.1185C36.4002 189.885 36.634 189.933 36.8199 190.03C37.0069 190.128 37.1466 190.262 37.2389 190.434C37.3312 190.604 37.3774 190.801 37.3774 191.025C37.3774 191.247 37.3306 191.443 37.2371 191.613C37.1448 191.781 37.0051 191.911 36.8181 192.005C36.6323 192.098 36.3985 192.145 36.1167 192.145H35.1349V191.673H36.067C36.2446 191.673 36.389 191.647 36.5003 191.597C36.6127 191.546 36.695 191.472 36.7471 191.375C36.7992 191.278 36.8252 191.161 36.8252 191.025C36.8252 190.887 36.7986 190.769 36.7453 190.668C36.6932 190.567 36.6109 190.49 36.4985 190.437C36.3872 190.383 36.241 190.355 36.0599 190.355H35.371V193.521H34.8224ZM36.6175 191.881L37.5159 193.521H36.8909L36.0102 191.881H36.6175Z" fill="#1E1E20"/>
<path d="M58.6388 251.521V247.885H59.9704C60.2285 247.885 60.4421 247.927 60.6114 248.013C60.7807 248.097 60.9073 248.211 60.9914 248.355C61.0754 248.499 61.1175 248.66 61.1175 248.84C61.1175 248.992 61.0896 249.119 61.034 249.224C60.9784 249.327 60.9038 249.409 60.8103 249.472C60.718 249.534 60.6162 249.579 60.5049 249.607V249.643C60.6256 249.649 60.7434 249.688 60.8582 249.76C60.9742 249.831 61.0701 249.932 61.1459 250.063C61.2216 250.195 61.2595 250.355 61.2595 250.543C61.2595 250.729 61.2157 250.896 61.1281 251.044C61.0417 251.19 60.9079 251.307 60.7268 251.393C60.5457 251.479 60.3143 251.521 60.0326 251.521H58.6388ZM59.1874 251.051H59.9793C60.2421 251.051 60.4303 251 60.5439 250.898C60.6576 250.796 60.7144 250.669 60.7144 250.516C60.7144 250.401 60.6854 250.296 60.6274 250.2C60.5694 250.104 60.4865 250.028 60.3788 249.971C60.2723 249.914 60.1456 249.886 59.9988 249.886H59.1874V251.051ZM59.1874 249.458H59.9225C60.0456 249.458 60.1563 249.434 60.2545 249.387C60.354 249.34 60.4327 249.273 60.4907 249.188C60.5499 249.102 60.5795 249 60.5795 248.883C60.5795 248.732 60.5268 248.606 60.4214 248.505C60.3161 248.403 60.1545 248.352 59.9367 248.352H59.1874V249.458ZM62.2174 251.521H61.635L62.9436 247.885H63.5775L64.8861 251.521H64.3037L63.2757 248.545H63.2472L62.2174 251.521ZM62.3151 250.097H64.2043V250.559H62.3151V250.097ZM68.2606 249.067H67.7066C67.6853 248.949 67.6456 248.845 67.5876 248.755C67.5296 248.665 67.4586 248.589 67.3746 248.526C67.2905 248.463 67.1964 248.416 67.0922 248.384C66.9893 248.352 66.8798 248.336 66.7638 248.336C66.5542 248.336 66.3666 248.389 66.2009 248.494C66.0364 248.599 65.9062 248.754 65.8103 248.957C65.7156 249.161 65.6682 249.409 65.6682 249.703C65.6682 249.999 65.7156 250.249 65.8103 250.452C65.9062 250.656 66.037 250.81 66.2027 250.914C66.3684 251.018 66.5548 251.07 66.762 251.07C66.8768 251.07 66.9857 251.055 67.0887 251.024C67.1929 250.992 67.287 250.945 67.371 250.884C67.455 250.822 67.5261 250.747 67.5841 250.658C67.6433 250.568 67.6841 250.465 67.7066 250.349L68.2606 250.351C68.231 250.53 68.1736 250.694 68.0883 250.845C68.0043 250.994 67.896 251.123 67.7634 251.232C67.632 251.34 67.4817 251.423 67.3124 251.482C67.1431 251.541 66.9585 251.571 66.7584 251.571C66.4436 251.571 66.163 251.496 65.9168 251.347C65.6706 251.197 65.4765 250.982 65.3344 250.703C65.1936 250.423 65.1231 250.09 65.1231 249.703C65.1231 249.315 65.1942 248.982 65.3362 248.703C65.4782 248.424 65.6724 248.21 65.9186 248.061C66.1648 247.91 66.4448 247.835 66.7584 247.835C66.9514 247.835 67.1313 247.863 67.2982 247.919C67.4663 247.973 67.6172 248.054 67.751 248.16C67.8847 248.265 67.9954 248.394 68.083 248.547C68.1706 248.699 68.2298 248.872 68.2606 249.067ZM68.9171 251.521V247.885H69.4657V249.621H69.5101L71.0353 247.885H71.726L70.2594 249.522L71.7314 251.521H71.0708L69.8954 249.897L69.4657 250.39V251.521H68.9171ZM74.2109 248.84C74.192 248.672 74.1139 248.542 73.9766 248.45C73.8393 248.356 73.6664 248.309 73.4581 248.309C73.3089 248.309 73.1799 248.333 73.071 248.38C72.9621 248.426 72.8775 248.49 72.8171 248.572C72.7579 248.653 72.7283 248.744 72.7283 248.847C72.7283 248.934 72.7485 249.008 72.7887 249.071C72.8301 249.134 72.884 249.186 72.9503 249.229C73.0178 249.27 73.09 249.305 73.1669 249.334C73.2438 249.361 73.3178 249.383 73.3888 249.401L73.744 249.494C73.86 249.522 73.9789 249.56 74.1009 249.609C74.2228 249.657 74.3358 249.721 74.44 249.801C74.5442 249.88 74.6282 249.978 74.6921 250.095C74.7572 250.213 74.7898 250.353 74.7898 250.516C74.7898 250.722 74.7365 250.905 74.63 251.065C74.5246 251.225 74.3713 251.351 74.1701 251.443C73.9701 251.535 73.728 251.582 73.4439 251.582C73.1716 251.582 72.9361 251.538 72.7372 251.452C72.5384 251.366 72.3827 251.243 72.2702 251.084C72.1578 250.925 72.0956 250.735 72.0838 250.516H72.6342C72.6449 250.648 72.6875 250.757 72.7621 250.845C72.8378 250.931 72.9343 250.996 73.0515 251.038C73.1699 251.08 73.2995 251.1 73.4403 251.1C73.5954 251.1 73.7333 251.076 73.854 251.028C73.976 250.978 74.0719 250.909 74.1417 250.822C74.2115 250.733 74.2464 250.629 74.2464 250.511C74.2464 250.403 74.2157 250.315 74.1541 250.246C74.0938 250.178 74.0115 250.121 73.9073 250.076C73.8043 250.031 73.6877 249.991 73.5575 249.957L73.1278 249.84C72.8366 249.76 72.6058 249.644 72.4354 249.49C72.2661 249.336 72.1815 249.133 72.1815 248.879C72.1815 248.67 72.2383 248.487 72.3519 248.331C72.4656 248.174 72.6194 248.053 72.8136 247.967C73.0077 247.879 73.2267 247.835 73.4705 247.835C73.7167 247.835 73.9339 247.878 74.1222 247.965C74.3116 248.051 74.4607 248.17 74.5696 248.322C74.6785 248.472 74.7353 248.645 74.7401 248.84H74.2109ZM75.2661 248.357V247.885H78.0803V248.357H76.9458V251.521H76.3989V248.357H75.2661ZM78.5797 251.521H77.9973L79.3059 247.885H79.9398L81.2484 251.521H80.666L79.638 248.545H79.6096L78.5797 251.521ZM78.6774 250.097H80.5666V250.559H78.6774V250.097ZM84.0636 249.034C84.0292 248.926 83.9831 248.829 83.9251 248.744C83.8683 248.658 83.8002 248.584 83.7209 248.524C83.6416 248.463 83.551 248.416 83.4492 248.384C83.3486 248.352 83.2379 248.336 83.1172 248.336C82.9124 248.336 82.7277 248.389 82.5632 248.494C82.3987 248.599 82.2685 248.754 82.1726 248.957C82.0779 249.16 82.0305 249.408 82.0305 249.701C82.0305 249.996 82.0785 250.245 82.1744 250.449C82.2702 250.652 82.4016 250.807 82.5685 250.912C82.7354 251.018 82.9254 251.07 83.1385 251.07C83.3362 251.07 83.5084 251.03 83.6552 250.95C83.8031 250.869 83.9174 250.755 83.9979 250.609C84.0795 250.461 84.1204 250.287 84.1204 250.087L84.2624 250.113H83.2219V249.66H84.6513V250.074C84.6513 250.38 84.5862 250.645 84.456 250.87C84.3269 251.093 84.1482 251.266 83.9197 251.388C83.6925 251.51 83.4321 251.571 83.1385 251.571C82.8094 251.571 82.5206 251.495 82.272 251.344C82.0246 251.192 81.8317 250.977 81.6932 250.699C81.5547 250.42 81.4854 250.088 81.4854 249.705C81.4854 249.415 81.5257 249.154 81.6062 248.924C81.6867 248.693 81.7997 248.497 81.9453 248.336C82.0921 248.174 82.2643 248.05 82.462 247.965C82.6609 247.878 82.8781 247.835 83.1136 247.835C83.3101 247.835 83.493 247.864 83.6623 247.922C83.8327 247.98 83.9843 248.062 84.1168 248.169C84.2506 248.276 84.3613 248.402 84.4489 248.549C84.5365 248.695 84.5956 248.856 84.6264 249.034H84.0636ZM85.3477 251.521V247.885H87.6276V248.357H85.8964V249.465H87.5086V249.936H85.8964V251.049H87.6489V251.521H85.3477ZM64.4025 257.521H63.8201L65.1287 253.885H65.7626L67.0712 257.521H66.4888L65.4607 254.545H65.4323L64.4025 257.521ZM64.5001 256.097H66.3893V256.559H64.5001V256.097ZM70.4456 255.067H69.8916C69.8703 254.949 69.8307 254.845 69.7727 254.755C69.7147 254.665 69.6437 254.589 69.5596 254.526C69.4756 254.463 69.3815 254.416 69.2773 254.384C69.1743 254.352 69.0648 254.336 68.9488 254.336C68.7393 254.336 68.5517 254.389 68.386 254.494C68.2214 254.599 68.0912 254.754 67.9953 254.957C67.9006 255.161 67.8533 255.409 67.8533 255.703C67.8533 255.999 67.9006 256.249 67.9953 256.452C68.0912 256.656 68.222 256.81 68.3877 256.914C68.5535 257.018 68.7399 257.07 68.947 257.07C69.0619 257.07 69.1708 257.055 69.2737 257.024C69.3779 256.992 69.472 256.945 69.5561 256.884C69.6401 256.822 69.7111 256.747 69.7691 256.658C69.8283 256.568 69.8692 256.465 69.8916 256.349L70.4456 256.351C70.416 256.53 70.3586 256.694 70.2734 256.845C70.1893 256.994 70.081 257.123 69.9485 257.232C69.8171 257.34 69.6667 257.423 69.4975 257.482C69.3282 257.541 69.1435 257.571 68.9435 257.571C68.6286 257.571 68.3481 257.496 68.1019 257.347C67.8557 257.197 67.6615 256.982 67.5195 256.703C67.3786 256.423 67.3082 256.09 67.3082 255.703C67.3082 255.315 67.3792 254.982 67.5213 254.703C67.6633 254.424 67.8574 254.21 68.1036 254.061C68.3499 253.91 68.6298 253.835 68.9435 253.835C69.1364 253.835 69.3164 253.863 69.4833 253.919C69.6514 253.973 69.8023 254.054 69.936 254.16C70.0698 254.265 70.1805 254.394 70.2681 254.547C70.3557 254.699 70.4148 254.872 70.4456 255.067ZM74.1224 255.067H73.5684C73.5471 254.949 73.5074 254.845 73.4494 254.755C73.3914 254.665 73.3204 254.589 73.2364 254.526C73.1523 254.463 73.0582 254.416 72.9541 254.384C72.8511 254.352 72.7416 254.336 72.6256 254.336C72.4161 254.336 72.2284 254.389 72.0627 254.494C71.8982 254.599 71.768 254.754 71.6721 254.957C71.5774 255.161 71.5301 255.409 71.5301 255.703C71.5301 255.999 71.5774 256.249 71.6721 256.452C71.768 256.656 71.8988 256.81 72.0645 256.914C72.2302 257.018 72.4167 257.07 72.6238 257.07C72.7386 257.07 72.8475 257.055 72.9505 257.024C73.0547 256.992 73.1488 256.945 73.2328 256.884C73.3169 256.822 73.3879 256.747 73.4459 256.658C73.5051 256.568 73.5459 256.465 73.5684 256.349L74.1224 256.351C74.0928 256.53 74.0354 256.694 73.9502 256.845C73.8661 256.994 73.7578 257.123 73.6252 257.232C73.4938 257.34 73.3435 257.423 73.1742 257.482C73.005 257.541 72.8203 257.571 72.6203 257.571C72.3054 257.571 72.0248 257.496 71.7786 257.347C71.5324 257.197 71.3383 256.982 71.1962 256.703C71.0554 256.423 70.985 256.09 70.985 255.703C70.985 255.315 71.056 254.982 71.198 254.703C71.3401 254.424 71.5342 254.21 71.7804 254.061C72.0266 253.91 72.3066 253.835 72.6203 253.835C72.8132 253.835 72.9931 253.863 73.16 253.919C73.3281 253.973 73.479 254.054 73.6128 254.16C73.7466 254.265 73.8572 254.394 73.9448 254.547C74.0324 254.699 74.0916 254.872 74.1224 255.067ZM74.7789 257.521V253.885H77.0587V254.357H75.3275V255.465H76.9398V255.936H75.3275V257.049H77.08V257.521H74.7789ZM79.7749 254.84C79.756 254.672 79.6778 254.542 79.5405 254.45C79.4032 254.356 79.2304 254.309 79.0221 254.309C78.8729 254.309 78.7439 254.333 78.635 254.38C78.5261 254.426 78.4415 254.49 78.3811 254.572C78.3219 254.653 78.2923 254.744 78.2923 254.847C78.2923 254.934 78.3124 255.008 78.3527 255.071C78.3941 255.134 78.448 255.186 78.5142 255.229C78.5817 255.27 78.6539 255.305 78.7309 255.334C78.8078 255.361 78.8818 255.383 78.9528 255.401L79.3079 255.494C79.4239 255.522 79.5429 255.56 79.6648 255.609C79.7867 255.657 79.8998 255.721 80.004 255.801C80.1081 255.88 80.1922 255.978 80.2561 256.095C80.3212 256.213 80.3537 256.353 80.3537 256.516C80.3537 256.722 80.3005 256.905 80.1939 257.065C80.0886 257.225 79.9353 257.351 79.7341 257.443C79.534 257.535 79.2919 257.582 79.0079 257.582C78.7356 257.582 78.5 257.538 78.3012 257.452C78.1023 257.366 77.9467 257.243 77.8342 257.084C77.7218 256.925 77.6596 256.735 77.6478 256.516H78.1982C78.2089 256.648 78.2515 256.757 78.326 256.845C78.4018 256.931 78.4983 256.996 78.6155 257.038C78.7338 257.08 78.8634 257.1 79.0043 257.1C79.1594 257.1 79.2973 257.076 79.418 257.028C79.5399 256.978 79.6358 256.909 79.7057 256.822C79.7755 256.733 79.8104 256.629 79.8104 256.511C79.8104 256.403 79.7796 256.315 79.7181 256.246C79.6577 256.178 79.5754 256.121 79.4713 256.076C79.3683 256.031 79.2517 255.991 79.1215 255.957L78.6918 255.84C78.4006 255.76 78.1698 255.644 77.9993 255.49C77.8301 255.336 77.7454 255.133 77.7454 254.879C77.7454 254.67 77.8022 254.487 77.9159 254.331C78.0295 254.174 78.1834 254.053 78.3775 253.967C78.5717 253.879 78.7906 253.835 79.0345 253.835C79.2807 253.835 79.4979 253.878 79.6861 253.965C79.8755 254.051 80.0247 254.17 80.1336 254.322C80.2425 254.472 80.2993 254.645 80.304 254.84H79.7749ZM82.9927 254.84C82.9737 254.672 82.8956 254.542 82.7583 254.45C82.621 254.356 82.4482 254.309 82.2398 254.309C82.0907 254.309 81.9617 254.333 81.8528 254.38C81.7439 254.426 81.6592 254.49 81.5989 254.572C81.5397 254.653 81.5101 254.744 81.5101 254.847C81.5101 254.934 81.5302 255.008 81.5704 255.071C81.6119 255.134 81.6657 255.186 81.732 255.229C81.7995 255.27 81.8717 255.305 81.9486 255.334C82.0256 255.361 82.0996 255.383 82.1706 255.401L82.5257 255.494C82.6417 255.522 82.7607 255.56 82.8826 255.609C83.0045 255.657 83.1176 255.721 83.2217 255.801C83.3259 255.88 83.4099 255.978 83.4739 256.095C83.539 256.213 83.5715 256.353 83.5715 256.516C83.5715 256.722 83.5182 256.905 83.4117 257.065C83.3064 257.225 83.1531 257.351 82.9518 257.443C82.7518 257.535 82.5097 257.582 82.2256 257.582C81.9534 257.582 81.7178 257.538 81.519 257.452C81.3201 257.366 81.1644 257.243 81.052 257.084C80.9395 256.925 80.8774 256.735 80.8655 256.516H81.416C81.4266 256.648 81.4692 256.757 81.5438 256.845C81.6196 256.931 81.716 256.996 81.8332 257.038C81.9516 257.08 82.0812 257.1 82.2221 257.1C82.3771 257.1 82.515 257.076 82.6358 257.028C82.7577 256.978 82.8536 256.909 82.9234 256.822C82.9933 256.733 83.0282 256.629 83.0282 256.511C83.0282 256.403 82.9974 256.315 82.9359 256.246C82.8755 256.178 82.7932 256.121 82.6891 256.076C82.5861 256.031 82.4695 255.991 82.3393 255.957L81.9096 255.84C81.6184 255.76 81.3876 255.644 81.2171 255.49C81.0478 255.336 80.9632 255.133 80.9632 254.879C80.9632 254.67 81.02 254.487 81.1337 254.331C81.2473 254.174 81.4012 254.053 81.5953 253.967C81.7894 253.879 82.0084 253.835 82.2523 253.835C82.4985 253.835 82.7157 253.878 82.9039 253.965C83.0933 254.051 83.2424 254.17 83.3513 254.322C83.4602 254.472 83.5171 254.645 83.5218 254.84H82.9927Z" fill="#1E1E20"/>
<path d="M97.5963 192.034C97.562 191.926 97.5158 191.829 97.4578 191.744C97.401 191.658 97.3329 191.584 97.2536 191.524C97.1743 191.463 97.0837 191.416 96.9819 191.384C96.8813 191.352 96.7706 191.336 96.6499 191.336C96.4451 191.336 96.2605 191.389 96.0959 191.494C95.9314 191.599 95.8012 191.754 95.7053 191.957C95.6106 192.16 95.5633 192.408 95.5633 192.701C95.5633 192.996 95.6112 193.245 95.7071 193.449C95.803 193.652 95.9343 193.807 96.1013 193.912C96.2682 194.018 96.4581 194.07 96.6712 194.07C96.8689 194.07 97.0411 194.03 97.1879 193.95C97.3359 193.869 97.4501 193.755 97.5306 193.609C97.6123 193.461 97.6531 193.287 97.6531 193.087L97.7951 193.113H96.7547V192.66H98.184V193.074C98.184 193.38 98.1189 193.645 97.9887 193.87C97.8597 194.093 97.6809 194.266 97.4525 194.388C97.2252 194.51 96.9648 194.571 96.6712 194.571C96.3421 194.571 96.0533 194.495 95.8047 194.344C95.5573 194.192 95.3644 193.977 95.2259 193.699C95.0874 193.42 95.0182 193.088 95.0182 192.705C95.0182 192.415 95.0584 192.154 95.1389 191.924C95.2194 191.693 95.3324 191.497 95.478 191.336C95.6248 191.174 95.797 191.05 95.9947 190.965C96.1936 190.878 96.4108 190.835 96.6464 190.835C96.8428 190.835 97.0257 190.864 97.195 190.922C97.3655 190.98 97.517 191.062 97.6495 191.169C97.7833 191.276 97.894 191.402 97.9816 191.549C98.0692 191.695 98.1284 191.856 98.1591 192.034H97.5963ZM98.8805 194.521V190.885H101.16V191.357H99.4291V192.465H101.041V192.936H99.4291V194.049H101.182V194.521H98.8805ZM104.828 190.885V194.521H104.324L102.476 191.854H102.442V194.521H101.893V190.885H102.401L104.251 193.555H104.285V190.885H104.828ZM105.629 194.521V190.885H107.908V191.357H106.177V192.465H107.789V192.936H106.177V194.049H107.93V194.521H105.629ZM108.641 194.521V190.885H109.937C110.219 190.885 110.453 190.933 110.639 191.03C110.826 191.128 110.965 191.262 111.058 191.434C111.15 191.604 111.196 191.801 111.196 192.025C111.196 192.247 111.149 192.443 111.056 192.613C110.964 192.781 110.824 192.911 110.637 193.005C110.451 193.098 110.217 193.145 109.936 193.145H108.954V192.673H109.886C110.063 192.673 110.208 192.647 110.319 192.597C110.432 192.546 110.514 192.472 110.566 192.375C110.618 192.278 110.644 192.161 110.644 192.025C110.644 191.887 110.617 191.769 110.564 191.668C110.512 191.567 110.43 191.49 110.317 191.437C110.206 191.383 110.06 191.355 109.879 191.355H109.19V194.521H108.641ZM110.436 192.881L111.335 194.521H110.71L109.829 192.881H110.436ZM112.171 194.521H111.589L112.897 190.885H113.531L114.84 194.521H114.257L113.229 191.545H113.201L112.171 194.521ZM112.269 193.097H114.158V193.559H112.269V193.097ZM115.365 194.521V190.885H115.913V194.049H117.561V194.521H115.365ZM92.8156 200.521H92.2332L93.5418 196.885H94.1756L95.4842 200.521H94.9019L93.8738 197.545H93.8454L92.8156 200.521ZM92.9132 199.097H94.8024V199.559H92.9132V199.097ZM97.1866 200.521H96.0094V196.885H97.2239C97.5802 196.885 97.8861 196.958 98.1418 197.103C98.3975 197.248 98.5934 197.455 98.7295 197.726C98.8668 197.996 98.9355 198.32 98.9355 198.698C98.9355 199.077 98.8663 199.402 98.7278 199.674C98.5905 199.947 98.3916 200.156 98.1312 200.303C97.8708 200.448 97.5559 200.521 97.1866 200.521ZM96.558 200.042H97.1564C97.4334 200.042 97.6636 199.99 97.8471 199.886C98.0306 199.78 98.1679 199.628 98.259 199.429C98.3502 199.229 98.3957 198.985 98.3957 198.698C98.3957 198.412 98.3502 198.17 98.259 197.972C98.169 197.773 98.0347 197.622 97.856 197.519C97.6772 197.416 97.4553 197.364 97.1901 197.364H96.558V200.042ZM99.6178 196.885H100.284L101.441 199.712H101.484L102.642 196.885H103.307V200.521H102.785V197.89H102.752L101.679 200.516H101.246L100.174 197.888H100.14V200.521H99.6178V196.885ZM104.654 196.885V200.521H104.105V196.885H104.654ZM107.436 197.84C107.417 197.672 107.339 197.542 107.202 197.45C107.064 197.356 106.892 197.309 106.683 197.309C106.534 197.309 106.405 197.333 106.296 197.38C106.187 197.426 106.103 197.49 106.042 197.572C105.983 197.653 105.953 197.744 105.953 197.847C105.953 197.934 105.974 198.008 106.014 198.071C106.055 198.134 106.109 198.186 106.175 198.229C106.243 198.27 106.315 198.305 106.392 198.334C106.469 198.361 106.543 198.383 106.614 198.401L106.969 198.494C107.085 198.522 107.204 198.56 107.326 198.609C107.448 198.657 107.561 198.721 107.665 198.801C107.769 198.88 107.853 198.978 107.917 199.095C107.982 199.213 108.015 199.353 108.015 199.516C108.015 199.722 107.962 199.905 107.855 200.065C107.75 200.225 107.596 200.351 107.395 200.443C107.195 200.535 106.953 200.582 106.669 200.582C106.397 200.582 106.161 200.538 105.962 200.452C105.763 200.366 105.608 200.243 105.495 200.084C105.383 199.925 105.321 199.735 105.309 199.516H105.859C105.87 199.648 105.913 199.757 105.987 199.845C106.063 199.931 106.159 199.996 106.277 200.038C106.395 200.08 106.525 200.1 106.665 200.1C106.821 200.1 106.958 200.076 107.079 200.028C107.201 199.978 107.297 199.909 107.367 199.822C107.437 199.733 107.472 199.629 107.472 199.511C107.472 199.403 107.441 199.315 107.379 199.246C107.319 199.178 107.237 199.121 107.132 199.076C107.029 199.031 106.913 198.991 106.783 198.957L106.353 198.84C106.062 198.76 105.831 198.644 105.66 198.49C105.491 198.336 105.407 198.133 105.407 197.879C105.407 197.67 105.463 197.487 105.577 197.331C105.691 197.174 105.845 197.053 106.039 196.967C106.233 196.879 106.452 196.835 106.696 196.835C106.942 196.835 107.159 196.878 107.347 196.965C107.537 197.051 107.686 197.17 107.795 197.322C107.904 197.472 107.96 197.645 107.965 197.84H107.436ZM110.654 197.84C110.635 197.672 110.557 197.542 110.419 197.45C110.282 197.356 110.109 197.309 109.901 197.309C109.752 197.309 109.623 197.333 109.514 197.38C109.405 197.426 109.32 197.49 109.26 197.572C109.201 197.653 109.171 197.744 109.171 197.847C109.171 197.934 109.191 198.008 109.232 198.071C109.273 198.134 109.327 198.186 109.393 198.229C109.461 198.27 109.533 198.305 109.61 198.334C109.687 198.361 109.761 198.383 109.832 198.401L110.187 198.494C110.303 198.522 110.422 198.56 110.544 198.609C110.666 198.657 110.779 198.721 110.883 198.801C110.987 198.88 111.071 198.978 111.135 199.095C111.2 199.213 111.233 199.353 111.233 199.516C111.233 199.722 111.179 199.905 111.073 200.065C110.967 200.225 110.814 200.351 110.613 200.443C110.413 200.535 110.171 200.582 109.887 200.582C109.615 200.582 109.379 200.538 109.18 200.452C108.981 200.366 108.826 200.243 108.713 200.084C108.601 199.925 108.539 199.735 108.527 199.516H109.077C109.088 199.648 109.13 199.757 109.205 199.845C109.281 199.931 109.377 199.996 109.494 200.038C109.613 200.08 109.742 200.1 109.883 200.1C110.038 200.1 110.176 200.076 110.297 200.028C110.419 199.978 110.515 199.909 110.585 199.822C110.654 199.733 110.689 199.629 110.689 199.511C110.689 199.403 110.659 199.315 110.597 199.246C110.537 199.178 110.454 199.121 110.35 199.076C110.247 199.031 110.131 198.991 110 198.957L109.571 198.84C109.28 198.76 109.049 198.644 108.878 198.49C108.709 198.336 108.624 198.133 108.624 197.879C108.624 197.67 108.681 197.487 108.795 197.331C108.908 197.174 109.062 197.053 109.256 196.967C109.451 196.879 109.67 196.835 109.913 196.835C110.16 196.835 110.377 196.878 110.565 196.965C110.754 197.051 110.904 197.17 111.012 197.322C111.121 197.472 111.178 197.645 111.183 197.84H110.654ZM112.437 196.885V200.521H111.888V196.885H112.437ZM116.395 198.703C116.395 199.091 116.324 199.425 116.182 199.704C116.04 199.983 115.845 200.197 115.597 200.347C115.351 200.496 115.071 200.571 114.758 200.571C114.443 200.571 114.162 200.496 113.914 200.347C113.668 200.197 113.474 199.982 113.332 199.703C113.19 199.423 113.119 199.09 113.119 198.703C113.119 198.315 113.19 197.982 113.332 197.703C113.474 197.424 113.668 197.21 113.914 197.061C114.162 196.91 114.443 196.835 114.758 196.835C115.071 196.835 115.351 196.91 115.597 197.061C115.845 197.21 116.04 197.424 116.182 197.703C116.324 197.982 116.395 198.315 116.395 198.703ZM115.851 198.703C115.851 198.407 115.803 198.158 115.708 197.956C115.613 197.752 115.483 197.598 115.317 197.494C115.152 197.389 114.966 197.336 114.758 197.336C114.548 197.336 114.361 197.389 114.197 197.494C114.032 197.598 113.902 197.752 113.806 197.956C113.711 198.158 113.664 198.407 113.664 198.703C113.664 198.999 113.711 199.249 113.806 199.452C113.902 199.655 114.032 199.809 114.197 199.914C114.361 200.018 114.548 200.07 114.758 200.07C114.966 200.07 115.152 200.018 115.317 199.914C115.483 199.809 115.613 199.655 115.708 199.452C115.803 199.249 115.851 198.999 115.851 198.703ZM120.014 196.885V200.521H119.509L117.661 197.854H117.627V200.521H117.079V196.885H117.587L119.437 199.555H119.47V196.885H120.014Z" fill="#1E1E20"/>
<path d="M127.3 251.521V247.885H128.632C128.89 247.885 129.104 247.927 129.273 248.013C129.442 248.097 129.569 248.211 129.653 248.355C129.737 248.499 129.779 248.66 129.779 248.84C129.779 248.992 129.751 249.119 129.696 249.224C129.64 249.327 129.565 249.409 129.472 249.472C129.38 249.534 129.278 249.579 129.167 249.607V249.643C129.287 249.649 129.405 249.688 129.52 249.76C129.636 249.831 129.732 249.932 129.807 250.063C129.883 250.195 129.921 250.355 129.921 250.543C129.921 250.729 129.877 250.896 129.79 251.044C129.703 251.19 129.57 251.307 129.388 251.393C129.207 251.479 128.976 251.521 128.694 251.521H127.3ZM127.849 251.051H128.641C128.904 251.051 129.092 251 129.206 250.898C129.319 250.796 129.376 250.669 129.376 250.516C129.376 250.401 129.347 250.296 129.289 250.2C129.231 250.104 129.148 250.028 129.04 249.971C128.934 249.914 128.807 249.886 128.66 249.886H127.849V251.051ZM127.849 249.458H128.584C128.707 249.458 128.818 249.434 128.916 249.387C129.016 249.34 129.094 249.273 129.152 249.188C129.211 249.102 129.241 249 129.241 248.883C129.241 248.732 129.188 248.606 129.083 248.505C128.978 248.403 128.816 248.352 128.598 248.352H127.849V249.458ZM130.879 251.521H130.297L131.605 247.885H132.239L133.548 251.521H132.965L131.937 248.545H131.909L130.879 251.521ZM130.977 250.097H132.866V250.559H130.977V250.097ZM136.922 249.067H136.368C136.347 248.949 136.307 248.845 136.249 248.755C136.191 248.665 136.12 248.589 136.036 248.526C135.952 248.463 135.858 248.416 135.754 248.384C135.651 248.352 135.541 248.336 135.425 248.336C135.216 248.336 135.028 248.389 134.863 248.494C134.698 248.599 134.568 248.754 134.472 248.957C134.377 249.161 134.33 249.409 134.33 249.703C134.33 249.999 134.377 250.249 134.472 250.452C134.568 250.656 134.699 250.81 134.864 250.914C135.03 251.018 135.216 251.07 135.424 251.07C135.538 251.07 135.647 251.055 135.75 251.024C135.854 250.992 135.949 250.945 136.033 250.884C136.117 250.822 136.188 250.747 136.246 250.658C136.305 250.568 136.346 250.465 136.368 250.349L136.922 250.351C136.893 250.53 136.835 250.694 136.75 250.845C136.666 250.994 136.558 251.123 136.425 251.232C136.294 251.34 136.143 251.423 135.974 251.482C135.805 251.541 135.62 251.571 135.42 251.571C135.105 251.571 134.825 251.496 134.578 251.347C134.332 251.197 134.138 250.982 133.996 250.703C133.855 250.423 133.785 250.09 133.785 249.703C133.785 249.315 133.856 248.982 133.998 248.703C134.14 248.424 134.334 248.21 134.58 248.061C134.826 247.91 135.106 247.835 135.42 247.835C135.613 247.835 135.793 247.863 135.96 247.919C136.128 247.973 136.279 248.054 136.413 248.16C136.546 248.265 136.657 248.394 136.745 248.547C136.832 248.699 136.891 248.872 136.922 249.067ZM137.579 251.521V247.885H138.127V249.621H138.172L139.697 247.885H140.388L138.921 249.522L140.393 251.521H139.732L138.557 249.897L138.127 250.39V251.521H137.579ZM142.873 248.84C142.854 248.672 142.775 248.542 142.638 248.45C142.501 248.356 142.328 248.309 142.12 248.309C141.971 248.309 141.842 248.333 141.733 248.38C141.624 248.426 141.539 248.49 141.479 248.572C141.42 248.653 141.39 248.744 141.39 248.847C141.39 248.934 141.41 249.008 141.45 249.071C141.492 249.134 141.546 249.186 141.612 249.229C141.679 249.27 141.752 249.305 141.829 249.334C141.905 249.361 141.979 249.383 142.05 249.401L142.406 249.494C142.522 249.522 142.641 249.56 142.762 249.609C142.884 249.657 142.997 249.721 143.102 249.801C143.206 249.88 143.29 249.978 143.354 250.095C143.419 250.213 143.451 250.353 143.451 250.516C143.451 250.722 143.398 250.905 143.292 251.065C143.186 251.225 143.033 251.351 142.832 251.443C142.632 251.535 142.39 251.582 142.106 251.582C141.833 251.582 141.598 251.538 141.399 251.452C141.2 251.366 141.044 251.243 140.932 251.084C140.819 250.925 140.757 250.735 140.745 250.516H141.296C141.307 250.648 141.349 250.757 141.424 250.845C141.499 250.931 141.596 250.996 141.713 251.038C141.831 251.08 141.961 251.1 142.102 251.1C142.257 251.1 142.395 251.076 142.516 251.028C142.638 250.978 142.733 250.909 142.803 250.822C142.873 250.733 142.908 250.629 142.908 250.511C142.908 250.403 142.877 250.315 142.816 250.246C142.755 250.178 142.673 250.121 142.569 250.076C142.466 250.031 142.349 249.991 142.219 249.957L141.789 249.84C141.498 249.76 141.267 249.644 141.097 249.49C140.928 249.336 140.843 249.133 140.843 248.879C140.843 248.67 140.9 248.487 141.014 248.331C141.127 248.174 141.281 248.053 141.475 247.967C141.669 247.879 141.888 247.835 142.132 247.835C142.378 247.835 142.596 247.878 142.784 247.965C142.973 248.051 143.122 248.17 143.231 248.322C143.34 248.472 143.397 248.645 143.402 248.84H142.873ZM143.928 248.357V247.885H146.742V248.357H145.607V251.521H145.061V248.357H143.928ZM147.241 251.521H146.659L147.968 247.885H148.601L149.91 251.521H149.328L148.3 248.545H148.271L147.241 251.521ZM147.339 250.097H149.228V250.559H147.339V250.097ZM152.725 249.034C152.691 248.926 152.645 248.829 152.587 248.744C152.53 248.658 152.462 248.584 152.383 248.524C152.303 248.463 152.213 248.416 152.111 248.384C152.01 248.352 151.9 248.336 151.779 248.336C151.574 248.336 151.389 248.389 151.225 248.494C151.06 248.599 150.93 248.754 150.834 248.957C150.74 249.16 150.692 249.408 150.692 249.701C150.692 249.996 150.74 250.245 150.836 250.449C150.932 250.652 151.063 250.807 151.23 250.912C151.397 251.018 151.587 251.07 151.8 251.07C151.998 251.07 152.17 251.03 152.317 250.95C152.465 250.869 152.579 250.755 152.659 250.609C152.741 250.461 152.782 250.287 152.782 250.087L152.924 250.113H151.884V249.66H153.313V250.074C153.313 250.38 153.248 250.645 153.118 250.87C152.989 251.093 152.81 251.266 152.581 251.388C152.354 251.51 152.094 251.571 151.8 251.571C151.471 251.571 151.182 251.495 150.934 251.344C150.686 251.192 150.493 250.977 150.355 250.699C150.216 250.42 150.147 250.088 150.147 249.705C150.147 249.415 150.187 249.154 150.268 248.924C150.348 248.693 150.461 248.497 150.607 248.336C150.754 248.174 150.926 248.05 151.124 247.965C151.322 247.878 151.54 247.835 151.775 247.835C151.972 247.835 152.155 247.864 152.324 247.922C152.494 247.98 152.646 248.062 152.778 248.169C152.912 248.276 153.023 248.402 153.11 248.549C153.198 248.695 153.257 248.856 153.288 249.034H152.725ZM154.009 251.521V247.885H156.289V248.357H154.558V249.465H156.17V249.936H154.558V251.049H156.311V251.521H154.009ZM132.402 257.521H131.82L133.129 253.885H133.763L135.071 257.521H134.489L133.461 254.545H133.432L132.402 257.521ZM132.5 256.097H134.389V256.559H132.5V256.097ZM138.446 255.067H137.892C137.87 254.949 137.831 254.845 137.773 254.755C137.715 254.665 137.644 254.589 137.56 254.526C137.476 254.463 137.381 254.416 137.277 254.384C137.174 254.352 137.065 254.336 136.949 254.336C136.739 254.336 136.552 254.389 136.386 254.494C136.221 254.599 136.091 254.754 135.995 254.957C135.901 255.161 135.853 255.409 135.853 255.703C135.853 255.999 135.901 256.249 135.995 256.452C136.091 256.656 136.222 256.81 136.388 256.914C136.553 257.018 136.74 257.07 136.947 257.07C137.062 257.07 137.171 257.055 137.274 257.024C137.378 256.992 137.472 256.945 137.556 256.884C137.64 256.822 137.711 256.747 137.769 256.658C137.828 256.568 137.869 256.465 137.892 256.349L138.446 256.351C138.416 256.53 138.359 256.694 138.273 256.845C138.189 256.994 138.081 257.123 137.948 257.232C137.817 257.34 137.667 257.423 137.497 257.482C137.328 257.541 137.144 257.571 136.943 257.571C136.629 257.571 136.348 257.496 136.102 257.347C135.856 257.197 135.662 256.982 135.519 256.703C135.379 256.423 135.308 256.09 135.308 255.703C135.308 255.315 135.379 254.982 135.521 254.703C135.663 254.424 135.857 254.21 136.104 254.061C136.35 253.91 136.63 253.835 136.943 253.835C137.136 253.835 137.316 253.863 137.483 253.919C137.651 253.973 137.802 254.054 137.936 254.16C138.07 254.265 138.18 254.394 138.268 254.547C138.356 254.699 138.415 254.872 138.446 255.067ZM142.122 255.067H141.568C141.547 254.949 141.507 254.845 141.449 254.755C141.391 254.665 141.32 254.589 141.236 254.526C141.152 254.463 141.058 254.416 140.954 254.384C140.851 254.352 140.742 254.336 140.626 254.336C140.416 254.336 140.228 254.389 140.063 254.494C139.898 254.599 139.768 254.754 139.672 254.957C139.577 255.161 139.53 255.409 139.53 255.703C139.53 255.999 139.577 256.249 139.672 256.452C139.768 256.656 139.899 256.81 140.064 256.914C140.23 257.018 140.417 257.07 140.624 257.07C140.739 257.07 140.848 257.055 140.951 257.024C141.055 256.992 141.149 256.945 141.233 256.884C141.317 256.822 141.388 256.747 141.446 256.658C141.505 256.568 141.546 256.465 141.568 256.349L142.122 256.351C142.093 256.53 142.035 256.694 141.95 256.845C141.866 256.994 141.758 257.123 141.625 257.232C141.494 257.34 141.343 257.423 141.174 257.482C141.005 257.541 140.82 257.571 140.62 257.571C140.305 257.571 140.025 257.496 139.779 257.347C139.532 257.197 139.338 256.982 139.196 256.703C139.055 256.423 138.985 256.09 138.985 255.703C138.985 255.315 139.056 254.982 139.198 254.703C139.34 254.424 139.534 254.21 139.78 254.061C140.027 253.91 140.307 253.835 140.62 253.835C140.813 253.835 140.993 253.863 141.16 253.919C141.328 253.973 141.479 254.054 141.613 254.16C141.747 254.265 141.857 254.394 141.945 254.547C142.032 254.699 142.092 254.872 142.122 255.067ZM142.779 257.521V253.885H145.059V254.357H143.328V255.465H144.94V255.936H143.328V257.049H145.08V257.521H142.779ZM147.775 254.84C147.756 254.672 147.678 254.542 147.541 254.45C147.403 254.356 147.23 254.309 147.022 254.309C146.873 254.309 146.744 254.333 146.635 254.38C146.526 254.426 146.441 254.49 146.381 254.572C146.322 254.653 146.292 254.744 146.292 254.847C146.292 254.934 146.312 255.008 146.353 255.071C146.394 255.134 146.448 255.186 146.514 255.229C146.582 255.27 146.654 255.305 146.731 255.334C146.808 255.361 146.882 255.383 146.953 255.401L147.308 255.494C147.424 255.522 147.543 255.56 147.665 255.609C147.787 255.657 147.9 255.721 148.004 255.801C148.108 255.88 148.192 255.978 148.256 256.095C148.321 256.213 148.354 256.353 148.354 256.516C148.354 256.722 148.3 256.905 148.194 257.065C148.089 257.225 147.935 257.351 147.734 257.443C147.534 257.535 147.292 257.582 147.008 257.582C146.736 257.582 146.5 257.538 146.301 257.452C146.102 257.366 145.947 257.243 145.834 257.084C145.722 256.925 145.66 256.735 145.648 256.516H146.198C146.209 256.648 146.251 256.757 146.326 256.845C146.402 256.931 146.498 256.996 146.615 257.038C146.734 257.08 146.863 257.1 147.004 257.1C147.159 257.1 147.297 257.076 147.418 257.028C147.54 256.978 147.636 256.909 147.706 256.822C147.775 256.733 147.81 256.629 147.81 256.511C147.81 256.403 147.78 256.315 147.718 256.246C147.658 256.178 147.575 256.121 147.471 256.076C147.368 256.031 147.252 255.991 147.121 255.957L146.692 255.84C146.401 255.76 146.17 255.644 145.999 255.49C145.83 255.336 145.745 255.133 145.745 254.879C145.745 254.67 145.802 254.487 145.916 254.331C146.03 254.174 146.183 254.053 146.378 253.967C146.572 253.879 146.791 253.835 147.034 253.835C147.281 253.835 147.498 253.878 147.686 253.965C147.876 254.051 148.025 254.17 148.134 254.322C148.242 254.472 148.299 254.645 148.304 254.84H147.775ZM150.993 254.84C150.974 254.672 150.896 254.542 150.758 254.45C150.621 254.356 150.448 254.309 150.24 254.309C150.091 254.309 149.962 254.333 149.853 254.38C149.744 254.426 149.659 254.49 149.599 254.572C149.54 254.653 149.51 254.744 149.51 254.847C149.51 254.934 149.53 255.008 149.57 255.071C149.612 255.134 149.666 255.186 149.732 255.229C149.799 255.27 149.872 255.305 149.949 255.334C150.026 255.361 150.1 255.383 150.171 255.401L150.526 255.494C150.642 255.522 150.761 255.56 150.883 255.609C151.005 255.657 151.118 255.721 151.222 255.801C151.326 255.88 151.41 255.978 151.474 256.095C151.539 256.213 151.572 256.353 151.572 256.516C151.572 256.722 151.518 256.905 151.412 257.065C151.306 257.225 151.153 257.351 150.952 257.443C150.752 257.535 150.51 257.582 150.226 257.582C149.953 257.582 149.718 257.538 149.519 257.452C149.32 257.366 149.164 257.243 149.052 257.084C148.94 256.925 148.877 256.735 148.866 256.516H149.416C149.427 256.648 149.469 256.757 149.544 256.845C149.62 256.931 149.716 256.996 149.833 257.038C149.952 257.08 150.081 257.1 150.222 257.1C150.377 257.1 150.515 257.076 150.636 257.028C150.758 256.978 150.854 256.909 150.923 256.822C150.993 256.733 151.028 256.629 151.028 256.511C151.028 256.403 150.997 256.315 150.936 256.246C150.875 256.178 150.793 256.121 150.689 256.076C150.586 256.031 150.469 255.991 150.339 255.957L149.91 255.84C149.618 255.76 149.388 255.644 149.217 255.49C149.048 255.336 148.963 255.133 148.963 254.879C148.963 254.67 149.02 254.487 149.134 254.331C149.247 254.174 149.401 254.053 149.595 253.967C149.789 253.879 150.008 253.835 150.252 253.835C150.498 253.835 150.716 253.878 150.904 253.965C151.093 254.051 151.242 254.17 151.351 254.322C151.46 254.472 151.517 254.645 151.522 254.84H150.993Z" fill="#1E1E20"/>
<path d="M178.261 190.84C178.242 190.672 178.164 190.542 178.026 190.45C177.889 190.356 177.716 190.309 177.508 190.309C177.359 190.309 177.23 190.333 177.121 190.38C177.012 190.426 176.927 190.49 176.867 190.572C176.808 190.653 176.778 190.744 176.778 190.847C176.778 190.934 176.798 191.008 176.839 191.071C176.88 191.134 176.934 191.186 177 191.229C177.068 191.27 177.14 191.305 177.217 191.334C177.294 191.361 177.368 191.383 177.439 191.401L177.794 191.494C177.91 191.522 178.029 191.56 178.151 191.609C178.273 191.657 178.386 191.721 178.49 191.801C178.594 191.88 178.678 191.978 178.742 192.095C178.807 192.213 178.84 192.353 178.84 192.516C178.84 192.722 178.786 192.905 178.68 193.065C178.574 193.225 178.421 193.351 178.22 193.443C178.02 193.535 177.778 193.582 177.494 193.582C177.221 193.582 176.986 193.538 176.787 193.452C176.588 193.366 176.432 193.243 176.32 193.084C176.208 192.925 176.145 192.735 176.134 192.516H176.684C176.695 192.648 176.737 192.757 176.812 192.845C176.888 192.931 176.984 192.996 177.101 193.038C177.22 193.08 177.349 193.1 177.49 193.1C177.645 193.1 177.783 193.076 177.904 193.028C178.026 192.978 178.122 192.909 178.191 192.822C178.261 192.733 178.296 192.629 178.296 192.511C178.296 192.403 178.265 192.315 178.204 192.246C178.144 192.178 178.061 192.121 177.957 192.076C177.854 192.031 177.738 191.991 177.607 191.957L177.178 191.84C176.886 191.76 176.656 191.644 176.485 191.49C176.316 191.336 176.231 191.133 176.231 190.879C176.231 190.67 176.288 190.487 176.402 190.331C176.515 190.174 176.669 190.053 176.863 189.967C177.057 189.879 177.276 189.835 177.52 189.835C177.767 189.835 177.984 189.878 178.172 189.965C178.361 190.051 178.511 190.17 178.619 190.322C178.728 190.472 178.785 190.645 178.79 190.84H178.261ZM180.044 189.885V193.521H179.495V189.885H180.044ZM180.843 193.521V189.885H181.392V193.049H183.039V193.521H180.843ZM183.627 189.885L184.639 192.847H184.679L185.691 189.885H186.285L184.976 193.521H184.342L183.033 189.885H183.627ZM186.81 193.521V189.885H189.089V190.357H187.358V191.465H188.971V191.936H187.358V193.049H189.111V193.521H186.81ZM189.822 193.521V189.885H191.119C191.4 189.885 191.634 189.933 191.82 190.03C192.007 190.128 192.147 190.262 192.239 190.434C192.331 190.604 192.377 190.801 192.377 191.025C192.377 191.247 192.331 191.443 192.237 191.613C192.145 191.781 192.005 191.911 191.818 192.005C191.632 192.098 191.398 192.145 191.117 192.145H190.135V191.673H191.067C191.245 191.673 191.389 191.647 191.5 191.597C191.613 191.546 191.695 191.472 191.747 191.375C191.799 191.278 191.825 191.161 191.825 191.025C191.825 190.887 191.799 190.769 191.745 190.668C191.693 190.567 191.611 190.49 191.498 190.437C191.387 190.383 191.241 190.355 191.06 190.355H190.371V193.521H189.822ZM191.617 191.881L192.516 193.521H191.891L191.01 191.881H191.617Z" fill="#1E1E20"/>
<path d="M25.1129 244.034C25.0786 243.926 25.0324 243.829 24.9744 243.744C24.9176 243.658 24.8495 243.584 24.7702 243.524C24.6909 243.463 24.6003 243.416 24.4985 243.384C24.3979 243.352 24.2872 243.336 24.1665 243.336C23.9617 243.336 23.7771 243.389 23.6125 243.494C23.448 243.599 23.3178 243.754 23.2219 243.957C23.1272 244.16 23.0799 244.408 23.0799 244.701C23.0799 244.996 23.1278 245.245 23.2237 245.449C23.3196 245.652 23.4509 245.807 23.6179 245.912C23.7848 246.018 23.9747 246.07 24.1878 246.07C24.3855 246.07 24.5577 246.03 24.7045 245.95C24.8525 245.869 24.9667 245.755 25.0472 245.609C25.1289 245.461 25.1697 245.287 25.1697 245.087L25.3117 245.113H24.2713V244.66H25.7006V245.074C25.7006 245.38 25.6355 245.645 25.5053 245.87C25.3763 246.093 25.1975 246.266 24.9691 246.388C24.7418 246.51 24.4814 246.571 24.1878 246.571C23.8587 246.571 23.5699 246.495 23.3213 246.344C23.0739 246.192 22.881 245.977 22.7425 245.699C22.604 245.42 22.5348 245.088 22.5348 244.705C22.5348 244.415 22.575 244.154 22.6555 243.924C22.736 243.693 22.849 243.497 22.9946 243.336C23.1414 243.174 23.3136 243.05 23.5113 242.965C23.7102 242.878 23.9274 242.835 24.163 242.835C24.3594 242.835 24.5423 242.864 24.7116 242.922C24.8821 242.98 25.0336 243.062 25.1661 243.169C25.2999 243.276 25.4106 243.402 25.4982 243.549C25.5858 243.695 25.645 243.856 25.6757 244.034H25.1129ZM29.5558 244.703C29.5558 245.091 29.4848 245.425 29.3427 245.704C29.2007 245.983 29.006 246.197 28.7586 246.347C28.5124 246.496 28.2324 246.571 27.9187 246.571C27.6039 246.571 27.3227 246.496 27.0753 246.347C26.8291 246.197 26.635 245.982 26.4929 245.703C26.3509 245.423 26.2799 245.09 26.2799 244.703C26.2799 244.315 26.3509 243.982 26.4929 243.703C26.635 243.424 26.8291 243.21 27.0753 243.061C27.3227 242.91 27.6039 242.835 27.9187 242.835C28.2324 242.835 28.5124 242.91 28.7586 243.061C29.006 243.21 29.2007 243.424 29.3427 243.703C29.4848 243.982 29.5558 244.315 29.5558 244.703ZM29.0125 244.703C29.0125 244.407 28.9645 244.158 28.8687 243.956C28.774 243.752 28.6437 243.598 28.478 243.494C28.3135 243.389 28.1271 243.336 27.9187 243.336C27.7092 243.336 27.5222 243.389 27.3576 243.494C27.1931 243.598 27.0629 243.752 26.967 243.956C26.8723 244.158 26.825 244.407 26.825 244.703C26.825 244.999 26.8723 245.249 26.967 245.452C27.0629 245.655 27.1931 245.809 27.3576 245.914C27.5222 246.018 27.7092 246.07 27.9187 246.07C28.1271 246.07 28.3135 246.018 28.478 245.914C28.6437 245.809 28.774 245.655 28.8687 245.452C28.9645 245.249 29.0125 244.999 29.0125 244.703ZM30.2398 246.521V242.885H30.7885V246.049H32.4362V246.521H30.2398ZM34.2393 246.521H33.0621V242.885H34.2766C34.6329 242.885 34.9389 242.958 35.1946 243.103C35.4502 243.248 35.6461 243.455 35.7823 243.726C35.9196 243.996 35.9882 244.32 35.9882 244.698C35.9882 245.077 35.919 245.402 35.7805 245.674C35.6432 245.947 35.4443 246.156 35.1839 246.303C34.9235 246.448 34.6086 246.521 34.2393 246.521ZM33.6108 246.042H34.2091C34.4861 246.042 34.7163 245.99 34.8998 245.886C35.0833 245.78 35.2206 245.628 35.3117 245.429C35.4029 245.229 35.4485 244.985 35.4485 244.698C35.4485 244.412 35.4029 244.17 35.3117 243.972C35.2218 243.773 35.0874 243.622 34.9087 243.519C34.73 243.416 34.508 243.364 34.2429 243.364H33.6108V246.042Z" fill="white"/>
<path d="M179.113 244.034C179.079 243.926 179.032 243.829 178.974 243.744C178.918 243.658 178.85 243.584 178.77 243.524C178.691 243.463 178.6 243.416 178.499 243.384C178.398 243.352 178.287 243.336 178.167 243.336C177.962 243.336 177.777 243.389 177.613 243.494C177.448 243.599 177.318 243.754 177.222 243.957C177.127 244.16 177.08 244.408 177.08 244.701C177.08 244.996 177.128 245.245 177.224 245.449C177.32 245.652 177.451 245.807 177.618 245.912C177.785 246.018 177.975 246.07 178.188 246.07C178.385 246.07 178.558 246.03 178.705 245.95C178.852 245.869 178.967 245.755 179.047 245.609C179.129 245.461 179.17 245.287 179.17 245.087L179.312 245.113H178.271V244.66H179.701V245.074C179.701 245.38 179.635 245.645 179.505 245.87C179.376 246.093 179.198 246.266 178.969 246.388C178.742 246.51 178.481 246.571 178.188 246.571C177.859 246.571 177.57 246.495 177.321 246.344C177.074 246.192 176.881 245.977 176.742 245.699C176.604 245.42 176.535 245.088 176.535 244.705C176.535 244.415 176.575 244.154 176.655 243.924C176.736 243.693 176.849 243.497 176.995 243.336C177.141 243.174 177.314 243.05 177.511 242.965C177.71 242.878 177.927 242.835 178.163 242.835C178.359 242.835 178.542 242.864 178.712 242.922C178.882 242.98 179.034 243.062 179.166 243.169C179.3 243.276 179.411 243.402 179.498 243.549C179.586 243.695 179.645 243.856 179.676 244.034H179.113ZM183.556 244.703C183.556 245.091 183.485 245.425 183.343 245.704C183.201 245.983 183.006 246.197 182.759 246.347C182.512 246.496 182.232 246.571 181.919 246.571C181.604 246.571 181.323 246.496 181.075 246.347C180.829 246.197 180.635 245.982 180.493 245.703C180.351 245.423 180.28 245.09 180.28 244.703C180.28 244.315 180.351 243.982 180.493 243.703C180.635 243.424 180.829 243.21 181.075 243.061C181.323 242.91 181.604 242.835 181.919 242.835C182.232 242.835 182.512 242.91 182.759 243.061C183.006 243.21 183.201 243.424 183.343 243.703C183.485 243.982 183.556 244.315 183.556 244.703ZM183.012 244.703C183.012 244.407 182.965 244.158 182.869 243.956C182.774 243.752 182.644 243.598 182.478 243.494C182.313 243.389 182.127 243.336 181.919 243.336C181.709 243.336 181.522 243.389 181.358 243.494C181.193 243.598 181.063 243.752 180.967 243.956C180.872 244.158 180.825 244.407 180.825 244.703C180.825 244.999 180.872 245.249 180.967 245.452C181.063 245.655 181.193 245.809 181.358 245.914C181.522 246.018 181.709 246.07 181.919 246.07C182.127 246.07 182.313 246.018 182.478 245.914C182.644 245.809 182.774 245.655 182.869 245.452C182.965 245.249 183.012 244.999 183.012 244.703ZM184.24 246.521V242.885H184.788V246.049H186.436V246.521H184.24ZM188.239 246.521H187.062V242.885H188.277C188.633 242.885 188.939 242.958 189.195 243.103C189.45 243.248 189.646 243.455 189.782 243.726C189.92 243.996 189.988 244.32 189.988 244.698C189.988 245.077 189.919 245.402 189.78 245.674C189.643 245.947 189.444 246.156 189.184 246.303C188.923 246.448 188.609 246.521 188.239 246.521ZM187.611 246.042H188.209C188.486 246.042 188.716 245.99 188.9 245.886C189.083 245.78 189.221 245.628 189.312 245.429C189.403 245.229 189.448 244.985 189.448 244.698C189.448 244.412 189.403 244.17 189.312 243.972C189.222 243.773 189.087 243.622 188.909 243.519C188.73 243.416 188.508 243.364 188.243 243.364H187.611V246.042Z" fill="white"/>
<path d="M176.522 118.521V114.885H177.854C178.112 114.885 178.325 114.927 178.495 115.013C178.664 115.097 178.791 115.211 178.875 115.355C178.959 115.499 179.001 115.66 179.001 115.84C179.001 115.992 178.973 116.119 178.917 116.224C178.862 116.327 178.787 116.409 178.694 116.472C178.601 116.534 178.499 116.579 178.388 116.607V116.643C178.509 116.649 178.627 116.688 178.742 116.76C178.858 116.831 178.953 116.932 179.029 117.063C179.105 117.195 179.143 117.355 179.143 117.543C179.143 117.729 179.099 117.896 179.011 118.044C178.925 118.19 178.791 118.307 178.61 118.393C178.429 118.479 178.198 118.521 177.916 118.521H176.522ZM177.071 118.051H177.863C178.125 118.051 178.314 118 178.427 117.898C178.541 117.796 178.598 117.669 178.598 117.516C178.598 117.401 178.569 117.296 178.511 117.2C178.453 117.104 178.37 117.028 178.262 116.971C178.156 116.914 178.029 116.886 177.882 116.886H177.071V118.051ZM177.071 116.458H177.806C177.929 116.458 178.04 116.434 178.138 116.387C178.237 116.34 178.316 116.273 178.374 116.188C178.433 116.102 178.463 116 178.463 115.883C178.463 115.732 178.41 115.606 178.305 115.505C178.199 115.403 178.038 115.352 177.82 115.352H177.071V116.458ZM179.794 118.521V114.885H181.09C181.371 114.885 181.605 114.933 181.791 115.03C181.978 115.128 182.118 115.262 182.21 115.434C182.302 115.604 182.349 115.801 182.349 116.025C182.349 116.247 182.302 116.443 182.208 116.613C182.116 116.781 181.976 116.911 181.789 117.005C181.603 117.098 181.37 117.145 181.088 117.145H180.106V116.673H181.038C181.216 116.673 181.36 116.647 181.471 116.597C181.584 116.546 181.666 116.472 181.718 116.375C181.77 116.278 181.796 116.161 181.796 116.025C181.796 115.887 181.77 115.769 181.716 115.668C181.664 115.567 181.582 115.49 181.47 115.437C181.358 115.383 181.212 115.355 181.031 115.355H180.342V118.521H179.794ZM181.589 116.881L182.487 118.521H181.862L180.981 116.881H181.589ZM186.175 116.703C186.175 117.091 186.104 117.425 185.962 117.704C185.82 117.983 185.625 118.197 185.378 118.347C185.131 118.496 184.852 118.571 184.538 118.571C184.223 118.571 183.942 118.496 183.694 118.347C183.448 118.197 183.254 117.982 183.112 117.703C182.97 117.423 182.899 117.09 182.899 116.703C182.899 116.315 182.97 115.982 183.112 115.703C183.254 115.424 183.448 115.21 183.694 115.061C183.942 114.91 184.223 114.835 184.538 114.835C184.852 114.835 185.131 114.91 185.378 115.061C185.625 115.21 185.82 115.424 185.962 115.703C186.104 115.982 186.175 116.315 186.175 116.703ZM185.632 116.703C185.632 116.407 185.584 116.158 185.488 115.956C185.393 115.752 185.263 115.598 185.097 115.494C184.933 115.389 184.746 115.336 184.538 115.336C184.328 115.336 184.141 115.389 183.977 115.494C183.812 115.598 183.682 115.752 183.586 115.956C183.491 116.158 183.444 116.407 183.444 116.703C183.444 116.999 183.491 117.249 183.586 117.452C183.682 117.655 183.812 117.809 183.977 117.914C184.141 118.018 184.328 118.07 184.538 118.07C184.746 118.07 184.933 118.018 185.097 117.914C185.263 117.809 185.393 117.655 185.488 117.452C185.584 117.249 185.632 116.999 185.632 116.703ZM189.794 114.885V118.521H189.29L187.441 115.854H187.408V118.521H186.859V114.885H187.367L189.217 117.555H189.251V114.885H189.794ZM190.5 118.521V118.155L192.413 115.357H190.484V114.885H193.084V115.251L191.171 118.049H193.1V118.521H190.5ZM193.788 118.521V114.885H196.068V115.357H194.336V116.465H195.949V116.936H194.336V118.049H196.089V118.521H193.788Z" fill="#1E1E20"/>
<path d="M95.773 127.521H94.5958V123.885H95.8103C96.1666 123.885 96.4726 123.958 96.7282 124.103C96.9839 124.248 97.1798 124.455 97.316 124.726C97.4533 124.996 97.5219 125.32 97.5219 125.698C97.5219 126.077 97.4527 126.402 97.3142 126.674C97.1769 126.947 96.978 127.156 96.7176 127.303C96.4572 127.448 96.1423 127.521 95.773 127.521ZM95.1444 127.042H95.7428C96.0198 127.042 96.25 126.99 96.4335 126.886C96.617 126.78 96.7543 126.628 96.8454 126.429C96.9366 126.229 96.9822 125.985 96.9822 125.698C96.9822 125.412 96.9366 125.17 96.8454 124.972C96.7555 124.773 96.6211 124.622 96.4424 124.519C96.2636 124.416 96.0417 124.364 95.7765 124.364H95.1444V127.042ZM98.7528 123.885V127.521H98.2042V123.885H98.7528ZM99.859 127.521H99.2766L100.585 123.885H101.219L102.528 127.521H101.945L100.917 124.545H100.889L99.859 127.521ZM99.9567 126.097H101.846V126.559H99.9567V126.097ZM103.053 123.885H103.719L104.876 126.712H104.919L106.077 123.885H106.742V127.521H106.22V124.89H106.187L105.114 127.516H104.681L103.609 124.888H103.575V127.521H103.053V123.885ZM110.699 125.703C110.699 126.091 110.628 126.425 110.486 126.704C110.344 126.983 110.149 127.197 109.902 127.347C109.655 127.496 109.375 127.571 109.062 127.571C108.747 127.571 108.466 127.496 108.218 127.347C107.972 127.197 107.778 126.982 107.636 126.703C107.494 126.423 107.423 126.09 107.423 125.703C107.423 125.315 107.494 124.982 107.636 124.703C107.778 124.424 107.972 124.21 108.218 124.061C108.466 123.91 108.747 123.835 109.062 123.835C109.375 123.835 109.655 123.91 109.902 124.061C110.149 124.21 110.344 124.424 110.486 124.703C110.628 124.982 110.699 125.315 110.699 125.703ZM110.156 125.703C110.156 125.407 110.108 125.158 110.012 124.956C109.917 124.752 109.787 124.598 109.621 124.494C109.457 124.389 109.27 124.336 109.062 124.336C108.852 124.336 108.665 124.389 108.501 124.494C108.336 124.598 108.206 124.752 108.11 124.956C108.015 125.158 107.968 125.407 107.968 125.703C107.968 125.999 108.015 126.249 108.11 126.452C108.206 126.655 108.336 126.809 108.501 126.914C108.665 127.018 108.852 127.07 109.062 127.07C109.27 127.07 109.457 127.018 109.621 126.914C109.787 126.809 109.917 126.655 110.012 126.452C110.108 126.249 110.156 125.999 110.156 125.703ZM114.318 123.885V127.521H113.814L111.965 124.854H111.932V127.521H111.383V123.885H111.891L113.741 126.555H113.775V123.885H114.318ZM116.295 127.521H115.118V123.885H116.333C116.689 123.885 116.995 123.958 117.251 124.103C117.506 124.248 117.702 124.455 117.838 124.726C117.976 124.996 118.044 125.32 118.044 125.698C118.044 126.077 117.975 126.402 117.837 126.674C117.699 126.947 117.5 127.156 117.24 127.303C116.98 127.448 116.665 127.521 116.295 127.521ZM115.667 127.042H116.265C116.542 127.042 116.772 126.99 116.956 126.886C117.139 126.78 117.277 126.628 117.368 126.429C117.459 126.229 117.505 125.985 117.505 125.698C117.505 125.412 117.459 125.17 117.368 124.972C117.278 124.773 117.144 124.622 116.965 124.519C116.786 124.416 116.564 124.364 116.299 124.364H115.667V127.042Z" fill="#1E1E20"/>
<path d="M94.2657 91.5212V87.8849H95.5619C95.8448 87.8849 96.0792 87.9364 96.265 88.0394C96.4508 88.1423 96.5899 88.2832 96.6823 88.4619C96.7746 88.6395 96.8208 88.8395 96.8208 89.0621C96.8208 89.2858 96.774 89.487 96.6805 89.6658C96.5882 89.8433 96.4485 89.9842 96.2615 90.0884C96.0756 90.1913 95.8418 90.2428 95.5601 90.2428H94.6688V89.7776H95.5104C95.6891 89.7776 95.8341 89.7469 95.9454 89.6853C96.0567 89.6226 96.1383 89.5373 96.1904 89.4296C96.2425 89.3219 96.2686 89.1994 96.2686 89.0621C96.2686 88.9248 96.2425 88.8028 96.1904 88.6963C96.1383 88.5898 96.0561 88.5063 95.9436 88.446C95.8324 88.3856 95.6856 88.3554 95.5033 88.3554H94.8144V91.5212H94.2657ZM97.464 91.5212V87.8849H98.0126V91.0489H99.6603V91.5212H97.464ZM100.779 91.5212H100.197L101.505 87.8849H102.139L103.448 91.5212H102.865L101.837 88.5454H101.809L100.779 91.5212ZM100.877 90.0972H102.766V90.5589H100.877V90.0972ZM103.364 88.3572V87.8849H106.178V88.3572H105.043V91.5212H104.497V88.3572H103.364ZM107.349 87.8849V91.5212H106.8V87.8849H107.349ZM111.083 87.8849V91.5212H110.578L108.73 88.8543H108.696V91.5212H108.148V87.8849H108.655L110.506 90.5553H110.539V87.8849H111.083ZM114.221 87.8849H114.772V90.2766C114.772 90.5311 114.712 90.7566 114.592 90.9531C114.473 91.1484 114.305 91.3023 114.088 91.4147C113.872 91.526 113.618 91.5816 113.326 91.5816C113.036 91.5816 112.783 91.526 112.566 91.4147C112.35 91.3023 112.182 91.1484 112.062 90.9531C111.943 90.7566 111.883 90.5311 111.883 90.2766V87.8849H112.432V90.2322C112.432 90.3967 112.468 90.5429 112.54 90.6707C112.613 90.7986 112.717 90.8992 112.851 90.9726C112.984 91.0448 113.143 91.0809 113.326 91.0809C113.511 91.0809 113.67 91.0448 113.804 90.9726C113.939 90.8992 114.042 90.7986 114.113 90.6707C114.185 90.5429 114.221 90.3967 114.221 90.2322V87.8849ZM115.569 87.8849H116.235L117.393 90.7116H117.436L118.593 87.8849H119.259V91.5212H118.737V88.8898H118.703L117.631 91.5159H117.198L116.125 88.8881H116.091V91.5212H115.569V87.8849Z" fill="#1E1E20"/>
</svg>
